HIERARCHY
ROOT Hips
{
	OFFSET	0.00	0.00	0.00
	CHANNELS 6 Xposition Yposition Zposition Zrotation Xrotation Yrotation
	JOINT LeftUpLeg
	{
		OFFSET	 0.126116	-0.014019	-0.065224
		CHANNELS 3 Zrotation Xrotation Yrotation
		JOINT LeftLeg
		{
			OFFSET	 0.000000	 0.000000	 0.569914
			CHANNELS 3 Zrotation Xrotation Yrotation
			JOINT LeftFoot
			{
				OFFSET	 0.000000	 0.000000	 0.544423
				CHANNELS 3 Zrotation Xrotation Yrotation
				JOINT LeftToeBase
				{
					OFFSET	 0.000000	 0.000000	 0.207117
					CHANNELS 3 Zrotation Xrotation Yrotation
					End Site
					{
						OFFSET	 0.000000	 0.000000	 0.207117
					}
				}
			}
		}
	}
	JOINT RightUpLeg
	{
		OFFSET	-0.124023	-0.008373	-0.065224
		CHANNELS 3 Zrotation Xrotation Yrotation
		JOINT RightLeg
		{
			OFFSET	 0.000000	 0.000000	 0.570047
			CHANNELS 3 Zrotation Xrotation Yrotation
			JOINT RightFoot
			{
				OFFSET	 0.000000	 0.000000	 0.544354
				CHANNELS 3 Zrotation Xrotation Yrotation
				JOINT RightToeBase
				{
					OFFSET	 0.000000	 0.000000	 0.207540
					CHANNELS 3 Zrotation Xrotation Yrotation
					End Site
					{
						OFFSET	 0.000000	 0.000000	 0.207540
					}
				}
			}
		}
	}
	JOINT Spine
	{
		OFFSET	 0.000184	-0.007763	 0.117403
		CHANNELS 3 Zrotation Xrotation Yrotation
		JOINT Spine1
		{
			OFFSET	 0.000000	 0.000000	 0.137269
			CHANNELS 3 Zrotation Xrotation Yrotation
			JOINT Spine2
			{
				OFFSET	 0.000000	 0.000000	 0.156879
				CHANNELS 3 Zrotation Xrotation Yrotation
				JOINT LeftShoulder
				{
					OFFSET	 0.080501	-0.002496	 0.160144
					CHANNELS 3 Zrotation Xrotation Yrotation
					JOINT LeftArm
					{
						OFFSET	 0.000000	 0.000000	 0.164363
						CHANNELS 3 Zrotation Xrotation Yrotation
						JOINT LeftForeArm
						{
							OFFSET	 0.000000	 0.000000	 0.364576
							CHANNELS 3 Zrotation Xrotation Yrotation
							JOINT LeftHand
							{
								OFFSET	 0.000000	 0.000000	 0.360812
								CHANNELS 3 Zrotation Xrotation Yrotation
								JOINT LeftHandIndex1
								{
									OFFSET	 0.000000	 0.000000	 0.086006
									CHANNELS 3 Zrotation Xrotation Yrotation
									JOINT LeftHandIndex2
									{
										OFFSET	 0.000000	 0.000000	 0.047237
										CHANNELS 3 Zrotation Xrotation Yrotation
										JOINT LeftHandIndex3
										{
											OFFSET	-0.004284	-0.000551	 0.038165
											CHANNELS 3 Zrotation Xrotation Yrotation
											End Site
											{
												OFFSET	-0.004284	-0.000551	 0.038165
											}
										}
									}
								}
							}
						}
					}
				}
				JOINT Neck
				{
					OFFSET	 0.000000	 0.000000	 0.176489
					CHANNELS 3 Zrotation Xrotation Yrotation
					JOINT Head
					{
						OFFSET	 0.000000	-0.001747	 0.077940
						CHANNELS 3 Zrotation Xrotation Yrotation
						End Site
						{
							OFFSET	 0.000000	-0.001747	 0.077940
						}
					}
				}
				JOINT RightShoulder
				{
					OFFSET	-0.080363	 0.000306	 0.159706
					CHANNELS 3 Zrotation Xrotation Yrotation
					JOINT RightArm
					{
						OFFSET	 0.000000	 0.000000	 0.164196
						CHANNELS 3 Zrotation Xrotation Yrotation
						JOINT RightForeArm
						{
							OFFSET	 0.000000	 0.000000	 0.365611
							CHANNELS 3 Zrotation Xrotation Yrotation
							JOINT RightHand
							{
								OFFSET	 0.000000	 0.000000	 0.360648
								CHANNELS 3 Zrotation Xrotation Yrotation
								JOINT RightHandIndex1
								{
									OFFSET	 0.000000	 0.000000	 0.069977
									CHANNELS 3 Zrotation Xrotation Yrotation
									JOINT RightHandIndex2
									{
										OFFSET	 0.000000	 0.000000	 0.052305
										CHANNELS 3 Zrotation Xrotation Yrotation
										JOINT RightHandIndex3
										{
											OFFSET	 0.009002	-0.000782	 0.042196
											CHANNELS 3 Zrotation Xrotation Yrotation
											End Site
											{
												OFFSET	 0.009002	-0.000782	 0.042196
											}
										}
									}
								}
							}
						}
					}
				}
			}
		}
	}
}
MOTION
Frames:    10
Frame Time: 0.03333334
-0.639386	-0.129603	 1.267943	-159.904000	 8.458891	 9.320897	-23.583100	-8.833603	 170.488400	-8.863040	-31.879300	-3.662690	 87.164340	 86.780160	-92.948950	-2.385833	 28.452760	 0.000004	 58.257340	-45.893460	-165.689400	-24.901670	-59.388570	-12.112180	 44.599220	 46.124320	-46.718090	 2.384659	 28.388700	-0.000001	 26.208760	-20.626260	-15.412510	 46.150040	 29.361070	-1.810695	-7.029175	-4.365200	-2.817436	-91.776210	 78.527400	-180.000000	 23.466430	 53.149220	-28.496760	-8.693890	-7.421209	-49.232650	 7.873053	-9.571259	-4.449563	-4.131196	 21.524690	 0.986298	-5.167839	 0.733520	 3.519257	-1.378229	 35.397820	-2.634230	-13.993440	 16.309850	-7.831813	-25.947670	 3.469909	 5.222659	 89.782100	 78.203900	 180.000000	 3.573392	 66.469860	-9.092363	-3.237429	-8.567367	 27.352900	 99.128630	-40.827350	-2.470345	 5.715225	 19.176060	-3.692089	 5.027514	 0.245388	-9.378011	-2.350882	 35.473990	 5.254307
-0.637435	-0.127741	 1.268553	-160.790100	 8.750907	 9.503055	-21.462310	-8.885430	 170.119700	-8.228091	-31.354870	-3.275175	 115.265000	 84.865490	-121.711600	-2.385833	 28.452760	 0.000004	 56.519530	-46.686560	-166.018100	-20.748690	-59.453620	-8.503152	 51.956560	 51.330350	-50.511170	 2.384659	 28.388700	-0.000001	 26.317300	-21.632530	-16.071900	 46.322720	 30.840220	-1.574696	-6.699693	-4.804234	-3.133524	-91.776180	 78.527420	-180.000000	 23.360840	 53.140090	-28.440490	-8.184166	-7.952324	-48.973750	 8.347272	-9.308573	-4.665203	-4.131196	 21.524690	 0.986298	-5.167839	 0.733520	 3.519257	-1.378229	 35.397820	-2.634230	-14.016600	 16.377070	-7.701972	-25.816340	 3.310901	 4.888055	 89.782130	 78.203870	 180.000000	 3.491192	 66.444670	-8.750485	-4.442111	-9.111877	 26.993920	 97.428890	-39.451140	-0.948573	 5.715225	 19.176060	-3.692089	 5.027514	 0.245388	-9.378011	-2.350882	 35.473990	 5.254307
-0.633910	-0.124405	 1.268645	-162.065100	 9.645394	 9.499061	-19.675010	-9.394778	 169.826900	-6.811781	-30.766780	-2.490342	 130.345300	 82.196910	-138.044000	-2.385833	 28.452760	 0.000004	 57.251470	-47.102550	-164.834100	-18.568500	-59.051770	-6.586835	 57.660510	 54.320600	-54.210090	 2.384659	 28.388700	-0.000001	 27.336320	-21.933630	-15.585880	 45.923770	 30.398570	 0.338260	-6.270914	-4.280427	-4.324972	-91.776160	 78.527350	 180.000000	 23.366040	 53.117500	-28.587990	-7.663253	-8.469227	-48.651130	 8.815971	-9.040458	-4.897145	-4.131196	 21.524690	 0.986298	-5.167839	 0.733520	 3.519257	-1.378229	 35.397820	-2.634230	-13.908230	 16.844950	-7.787930	-25.611750	 3.146114	 5.102981	 89.782080	 78.203890	-180.000000	 2.853498	 66.322550	-7.830060	-5.692150	-9.723419	 26.756670	 93.938640	-39.957320	-0.784877	 5.715225	 19.176060	-3.692089	 5.027514	 0.245388	-9.378011	-2.350882	 35.473990	 5.254307
-0.628229	-0.119237	 1.268953	-161.985600	 10.282240	 7.874614	-18.593700	-8.922773	 171.138300	-5.170440	-27.946440	-1.509478	 125.885200	 76.423270	-134.859100	-2.385833	 28.452760	 0.000004	 61.635820	-44.973180	-161.896900	-18.282110	-59.695860	-6.382076	 71.113050	 56.586070	-64.710930	 2.384659	 28.388700	-0.000001	 27.481990	-23.019140	-13.241350	 46.222520	 32.165000	-1.052478	-5.815080	-5.357955	-4.734414	-91.776150	 78.527380	 180.000000	 23.556630	 53.267670	-29.085360	-7.198826	-8.729824	-47.750250	 9.203798	-8.805890	-5.105693	-4.131196	 21.524690	 0.986298	-5.167839	 0.733520	 3.519257	-1.378229	 35.397820	-2.634230	-13.597640	 17.146820	-8.052721	-25.421970	 3.376631	 6.252664	 89.782100	 78.203890	 180.000000	 1.476584	 66.020420	-6.422728	-6.377151	-10.256980	 27.075670	 92.102100	-39.120070	 1.080747	 5.715225	 19.176060	-3.692089	 5.027514	 0.245388	-9.378011	-2.350882	 35.473990	 5.254307
-0.620943	-0.113383	 1.268734	-161.645800	 10.025470	 6.449377	-18.907510	-7.208459	 172.558700	-3.760359	-25.227990	-0.770944	 121.310400	 74.118650	-131.184600	-2.385833	 28.452760	 0.000004	 63.527390	-42.491060	-161.235900	-17.956170	-59.902190	-6.112257	 78.546120	 58.519620	-69.489180	 2.384659	 28.388700	-0.000001	 27.917860	-21.919490	-10.804030	 45.747120	 31.609870	-2.072955	-5.170431	-5.623297	-4.345292	-91.776140	 78.527420	 180.000000	 23.744110	 53.191440	-29.431030	-6.873610	-8.900440	-47.124120	 9.520887	-8.613356	-5.294551	-4.131196	 21.524690	 0.986298	-5.167839	 0.733520	 3.519257	-1.378229	 35.397820	-2.634230	-13.149030	 17.114770	-8.629094	-25.326420	 3.835571	 7.848063	 89.782040	 78.203920	-180.000000	-0.640083	 65.825120	-4.238564	-6.324787	-10.357930	 27.370190	 90.705440	-41.651890	 4.002505	 5.715225	 19.176060	-3.692089	 5.027514	 0.245388	-9.378011	-2.350882	 35.473990	 5.254307
-0.612409	-0.106210	 1.268366	-161.843000	 9.679467	 6.914236	-17.070340	-5.944808	 171.852600	-5.589978	-24.729920	-1.523563	 117.023500	 76.016600	-125.694600	-2.385833	 28.452760	 0.000004	 62.937710	-41.650680	-162.676400	-17.507770	-58.681640	-5.651446	 77.856220	 60.073040	-67.732660	 2.384659	 28.388700	-0.000001	 27.820080	-20.788020	-10.892820	 45.287290	 30.043410	-1.703740	-4.534573	-4.877506	-4.186856	-91.776180	 78.527380	 180.000000	 24.253930	 52.865330	-29.968630	-6.700319	-8.980755	-46.771340	 9.663588	-8.508250	-5.441095	-4.131196	 21.524690	 0.986298	-5.167839	 0.733520	 3.519257	-1.378229	 35.397820	-2.634230	-12.794680	 17.141410	-9.229280	-25.283650	 3.857663	 8.835501	 89.782130	 78.203920	 180.000000	-2.624697	 65.558110	-2.058358	-4.725180	-9.661919	 27.950250	 91.735350	-47.499080	 8.501609	 5.715225	 19.176060	-3.692089	 5.027514	 0.245388	-9.378011	-2.350882	 35.473990	 5.254307
-0.602374	-0.096679	 1.268190	-161.710800	 10.181330	 8.331377	-12.447850	-6.121826	 169.334000	-8.434643	-25.089650	-2.758472	 97.076100	 77.425520	-104.541000	-2.385833	 28.452760	 0.000004	 62.889510	-41.544250	-163.906100	-17.392960	-56.900570	-5.446036	 79.307690	 60.374340	-68.846050	 2.384659	 28.388700	-0.000001	 26.278800	-22.237350	-12.620640	 45.892950	 30.648250	-1.730215	-4.120229	-4.713219	-4.768105	-91.776200	 78.527420	-180.000000	 25.150610	 52.738110	-30.985760	-6.588361	-8.865834	-46.018800	 9.525493	-8.522105	-5.529744	-4.131196	 21.524690	 0.986298	-5.167839	 0.733520	 3.519257	-1.378229	 35.397820	-2.634230	-12.685740	 17.407670	-9.267699	-25.152440	 3.427557	 9.025832	 89.782120	 78.203920	 180.000000	-2.909817	 65.097020	-1.529049	-2.694019	-8.836137	 28.946250	 96.080270	-51.785260	 15.010890	 5.715225	 19.176060	-3.692089	 5.027514	 0.245388	-9.378011	-2.350882	 35.473990	 5.254307
-0.588332	-0.083695	 1.267491	-160.729000	 10.658580	 9.497548	-8.951917	-6.048429	 166.823000	-9.051959	-25.130010	-3.027817	 49.034270	 76.415890	-57.170780	-2.385833	 28.452760	 0.000004	 61.752420	-41.033920	-165.805600	-17.328830	-54.827950	-5.262106	 78.690480	 61.582160	-67.678770	 2.384659	 28.388700	-0.000001	 24.439470	-22.622500	-13.641700	 46.056450	 29.906210	-1.666603	-3.704306	-4.300867	-5.157413	-91.776250	 78.527420	-179.999900	 26.478860	 52.406910	-32.258670	-6.770546	-8.421972	-45.191340	 8.660747	-8.870548	-5.453782	-4.131196	 21.524690	 0.986298	-5.167839	 0.733520	 3.519257	-1.378229	 35.397820	-2.634230	-13.014850	 17.659920	-8.250814	-24.750140	 3.204316	 8.538959	 89.782160	 78.203890	 179.999900	-2.581693	 64.641190	-1.560015	-1.584233	-8.563919	 30.091480	 100.334800	-56.874160	 21.078870	 5.715225	 19.176060	-3.692089	 5.027514	 0.245388	-9.378011	-2.350882	 35.473990	 5.254307
-0.578252	-0.074837	 1.267081	-159.757500	 10.644880	 9.204106	-7.799912	-4.939547	 166.487800	-8.508409	-23.684590	-2.643331	 27.317090	 71.517650	-35.829890	-2.385833	 28.452760	 0.000004	 61.046840	-39.929490	-166.824700	-17.468000	-54.119710	-5.329419	 78.989900	 62.530360	-67.151560	 2.384659	 28.388700	-0.000001	 23.798930	-22.140860	-13.031660	 45.949730	 29.627930	-2.370734	-3.646366	-4.587230	-4.800605	-91.776180	 78.527430	 180.000000	 27.393630	 51.934320	-32.954830	-7.082923	-7.943458	-44.644130	 7.884467	-9.250768	-5.307470	-4.131196	 21.524690	 0.986298	-5.167839	 0.733520	 3.519257	-1.378229	 35.397820	-2.634230	-13.531130	 17.685200	-7.321259	-24.602290	 3.240235	 7.837280	 89.782080	 78.203890	-180.000000	-2.083109	 64.508350	-1.738789	-1.378936	-8.615820	 30.614970	 102.574400	-59.827030	 23.591090	 5.715225	 19.176060	-3.692089	 5.027514	 0.245388	-9.378011	-2.350882	 35.473990	 5.254307
-0.562936	-0.061558	 1.266978	-158.837500	 10.598920	 7.926923	-7.144343	-2.115952	 167.375800	-6.658677	-19.551370	-1.578223	 13.848070	 61.356840	-23.433080	-2.385833	 28.452760	 0.000004	 60.375770	-38.136140	-167.552500	-17.231880	-53.737590	-5.112522	 82.855570	 63.166670	-69.860370	 2.384659	 28.388700	-0.000001	 23.638110	-22.136960	-11.666630	 46.162030	 31.170810	-4.378674	-3.965235	-5.962239	-3.780525	-91.776210	 78.527400	-180.000000	 28.642570	 50.917640	-33.726970	-7.429008	-7.353320	-43.734040	 7.677472	-9.571689	-5.180772	-4.131196	 21.524690	 0.986298	-5.167839	 0.733520	 3.519257	-1.378229	 35.397820	-2.634230	-14.355690	 17.801180	-7.241466	-25.081660	 2.788553	 6.810699	 89.782150	 78.203850	 180.000000	 0.022722	 64.586530	-2.869847	-1.399937	-8.751971	 30.968280	 104.574000	-61.963210	 24.262170	 5.715225	 19.176060	-3.692089	 5.027514	 0.245388	-9.378011	-2.350882	 35.473990	 5.254307
